<?xml version="1.0" encoding="UTF-8"?>
<svg version="1.1" xmlns="http://www.w3.org/2000/svg" width="104" height="104">
<path d="M0 0 C10.25968387 8.24017713 17.51565243 20.10194947 19.71875 33.18359375 C19.99833395 36.31500181 20.0534085 39.41588473 20.03125 42.55859375 C20.02561035 43.39712891 20.0199707 44.23566406 20.01416016 45.09960938 C19.89395061 51.22672555 19.2971316 56.55803389 16.71875 62.18359375 C16.3165625 63.07046875 15.914375 63.95734375 15.5 64.87109375 C8.86205068 78.14699239 -1.26202989 87.49231184 -15.21875 92.62109375 C-29.42269057 96.53183305 -45.22552032 95.4940706 -58.26953125 88.60546875 C-70.78298242 81.08723828 -79.69317897 70.27137709 -83.62109375 56.0390625 C-86.45204115 39.50565961 -84.64963759 24.65795594 -75.11328125 10.64453125 C-67.980762 1.06353524 -57.35217058 -6.77041306 -45.55078125 -9.4140625 C-28.79894892 -11.47551857 -14.04708694 -10.07323998 0 0 Z " fill="#5169B1" transform="translate(84.28125,9.81640625)"/>
<path d="M0 0 C1.26263672 0.20496094 1.26263672 0.20496094 2.55078125 0.4140625 C2.88078125 0.0840625 3.21078125 -0.2459375 3.55078125 -0.5859375 C6.22136976 -0.72708911 8.87510363 -0.62840857 11.55078125 -0.5859375 C14.51948658 4.96425072 15.59232774 9.30713177 15.86328125 15.5390625 C15.90066406 16.38726563 15.93804687 17.23546875 15.9765625 18.109375 C15.55078125 20.4140625 15.55078125 20.4140625 13.74609375 22.21484375 C11.55078125 23.4140625 11.55078125 23.4140625 8.11328125 23.4765625 C3.40305715 22.07175882 2.26177661 20.43947986 -0.44921875 16.4140625 C-0.44921875 15.7540625 -0.44921875 15.0940625 -0.44921875 14.4140625 C-6.15279618 11.8791392 -12.31538422 11.64630125 -18.44921875 12.4140625 C-20.6966262 13.57996372 -22.65478756 14.61963131 -24.44921875 16.4140625 C-24.86639154 18.82944088 -24.86639154 18.82944088 -24.44921875 21.4140625 C-21.65458681 24.04265717 -19.60598694 24.80079701 -15.81640625 25.00390625 C-14.48996094 25.09345581 -14.48996094 25.09345581 -13.13671875 25.18481445 C-11.74453125 25.26735474 -11.74453125 25.26735474 -10.32421875 25.3515625 C-1.42334971 26.04504812 6.84367625 26.71096525 13.67578125 33.0390625 C15.55078125 35.4140625 15.55078125 35.4140625 15.55078125 37.4140625 C16.21078125 37.4140625 16.87078125 37.4140625 17.55078125 37.4140625 C18.70847797 44.09522791 19.15505171 50.37658418 15.55078125 56.4140625 C13.51171875 57.53515625 13.51171875 57.53515625 11.55078125 58.4140625 C10.34196029 60.41422716 10.34196029 60.41422716 9.55078125 62.4140625 C8.55078125 63.4140625 8.55078125 63.4140625 5.98828125 63.4765625 C5.18390625 63.4559375 4.37953125 63.4353125 3.55078125 63.4140625 C3.55078125 64.0740625 3.55078125 64.7340625 3.55078125 65.4140625 C-0.65753743 65.44320598 -4.86582997 65.46090962 -9.07421875 65.4765625 C-10.85892578 65.48913086 -10.85892578 65.48913086 -12.6796875 65.50195312 C-13.83339844 65.50517578 -14.98710938 65.50839844 -16.17578125 65.51171875 C-17.76253662 65.51957397 -17.76253662 65.51957397 -19.38134766 65.52758789 C-22.44921875 65.4140625 -22.44921875 65.4140625 -25.71630859 64.78295898 C-27.06909912 64.60035522 -27.06909912 64.60035522 -28.44921875 64.4140625 C-29.43921875 65.4040625 -29.43921875 65.4040625 -30.44921875 66.4140625 C-33.82421875 66.8515625 -33.82421875 66.8515625 -37.44921875 66.4140625 C-39.97762003 64.24044577 -41.27518548 62.49080586 -41.81347656 59.16040039 C-41.95138159 56.50419634 -41.94555367 53.88552117 -41.88671875 51.2265625 C-41.89380859 50.31197266 -41.90089844 49.39738281 -41.90820312 48.45507812 C-41.85999908 43.4307333 -41.85999908 43.4307333 -41.44921875 41.4140625 C-37.69874393 38.91374596 -35.89065609 38.87802696 -31.44921875 39.4140625 C-26.81411815 42.81313627 -25.61146203 46.02548 -24.44921875 51.4140625 C-20.07351416 52.24784767 -15.90232462 52.57714854 -11.44921875 52.6015625 C-10.27359375 52.61574219 -9.09796875 52.62992188 -7.88671875 52.64453125 C-4.4130806 52.4116396 -1.68469896 51.66189252 1.55078125 50.4140625 C1.88078125 47.7740625 2.21078125 45.1340625 2.55078125 42.4140625 C1.37515625 42.2903125 0.19953125 42.1665625 -1.01171875 42.0390625 C-3.72344123 41.75361803 -6.08994794 41.22750173 -8.72265625 40.4609375 C-13.29588584 39.17621472 -17.88156334 38.42724059 -22.57617188 37.734375 C-29.05381331 36.6392118 -34.40916428 33.5907925 -38.53515625 28.38671875 C-40.53780592 24.06476114 -40.19413135 19.02631303 -39.44921875 14.4140625 C-35.8540181 7.4733279 -30.93068923 3.43807826 -23.828125 0.35546875 C-16.23406977 -1.76033161 -7.71540872 -1.31065833 0 0 Z " fill="#7787BF" transform="translate(64.44921875,9.5859375)"/>
<path d="M0 0 C0.99 0.495 0.99 0.495 2 1 C4.40057264 1.08756403 6.77155318 1.11536354 9.171875 1.09765625 C10.27940125 1.09546585 10.27940125 1.09546585 11.40930176 1.0932312 C13.01461452 1.08942172 14.61992306 1.08330149 16.22521973 1.07516479 C18.76311075 1.06243423 21.30094971 1.05589414 23.83886719 1.05102539 C29.22593476 1.03957924 34.61295961 1.02033658 40 1 C46.24076023 0.97644055 52.48149589 0.95603363 58.72229004 0.94406128 C61.22732806 0.93755885 63.73229149 0.92505057 66.23730469 0.91235352 C67.76757745 0.9087221 69.29785092 0.90537023 70.828125 0.90234375 C71.52844849 0.89717743 72.22877197 0.89201111 72.95031738 0.88668823 C77.77231308 0.88615654 77.77231308 0.88615654 80 2 C77.14731106 8.84645346 69.61277849 13.20016581 63.05078125 16.15625 C62.37402344 16.4346875 61.69726562 16.713125 61 17 C60.33355469 17.2990625 59.66710937 17.598125 58.98046875 17.90625 C47.50407129 22.24758424 32.26921576 21.47499329 20.89453125 17.328125 C13.02358368 13.71662409 5.36595701 8.94094781 0 2 C0 1.34 0 0.68 0 0 Z " fill="#4B62A9" transform="translate(11,84)"/>
<path d="M0 0 C1.1446875 0.2784375 1.1446875 0.2784375 2.3125 0.5625 C5.08967375 1.22819173 5.08967375 1.22819173 8 0 C8.2475 1.11375 8.495 2.2275 8.75 3.375 C9.61005339 7.04615198 9.61005339 7.04615198 12.125 8.4375 C12.74375 8.623125 13.3625 8.80875 14 9 C14 9.66 14 10.32 14 11 C14.59425781 11.04487549 15.18851563 11.08975098 15.80078125 11.13598633 C18.53495113 11.34939403 21.26731982 11.58082418 24 11.8125 C24.93457031 11.88275391 25.86914062 11.95300781 26.83203125 12.02539062 C32.75273901 12.54293501 37.52880089 13.67795693 43 16 C43.928125 16.28875 44.85625 16.5775 45.8125 16.875 C48.77715718 18.39968084 49.51774844 20.03549689 51 23 C51.84166018 27.78898117 52.12117239 32.76560679 49.8984375 37.1953125 C46.16745243 41.80417641 41.39817485 45.56142256 35.40844727 46.33447266 C32.4498997 46.42952435 29.52122229 46.39812219 26.5625 46.3125 C25.56412109 46.30283203 24.56574219 46.29316406 23.53710938 46.28320312 C17.95157688 46.19874077 12.52621557 45.81016033 7 45 C6.67 45.66 6.34 46.32 6 47 C3.69 47 1.38 47 -1 47 C-2.13945516 44.72108967 -2.12894214 43.43217896 -2.1328125 40.90234375 C-2.13410156 40.10119141 -2.13539062 39.30003906 -2.13671875 38.47460938 C-2.13285156 37.63736328 -2.12898438 36.80011719 -2.125 35.9375 C-2.12886719 35.09638672 -2.13273437 34.25527344 -2.13671875 33.38867188 C-2.12662682 27.12662682 -2.12662682 27.12662682 -1 26 C1.25 25.5 1.25 25.5 4 26 C6.85572592 28.95884935 8.70443337 32.11330012 10 36 C16.91046324 40.74247477 23.78915616 40.84364704 32 40 C35.94477485 38.69800268 38.51302188 37.40808113 41 34 C41.47854044 30.17167646 41.62520921 27.9638642 39.5 24.6875 C39.005 24.130625 38.51 23.57375 38 23 C38 22.34 38 21.68 38 21 C36.9644397 20.87939209 36.9644397 20.87939209 35.90795898 20.75634766 C32.75040725 20.38518244 29.59398009 20.00516668 26.4375 19.625 C25.35146484 19.49867187 24.26542969 19.37234375 23.14648438 19.2421875 C8.19395032 17.42425023 8.19395032 17.42425023 2 13 C-0.20914 9.68629 -0.22481553 8.6553979 -0.125 4.8125 C-0.10695313 3.91144531 -0.08890625 3.01039062 -0.0703125 2.08203125 C-0.04710938 1.39496094 -0.02390625 0.70789063 0 0 Z " fill="#2C2F4C" transform="translate(28,26)"/>
<path d="M0 0 C1.65 0.33 3.3 0.66 5 1 C5.33 5.95 5.66 10.9 6 16 C30.09 16.33 54.18 16.66 79 17 C79 18.65 79 20.3 79 22 C74.83107445 23.01015491 70.81203657 23.13596231 66.54760742 23.11352539 C65.44923553 23.11374443 65.44923553 23.11374443 64.32867432 23.1139679 C61.92090845 23.11327413 59.51322102 23.10550692 57.10546875 23.09765625 C55.43109682 23.09579017 53.75672435 23.09436716 52.08235168 23.09336853 C47.68472779 23.08955835 43.28713716 23.0797409 38.88952637 23.06866455 C34.39836069 23.05841816 29.90718963 23.053864 25.41601562 23.04882812 C16.61066186 23.03811726 7.80533507 23.02105888 -1 23 C-1.02887512 19.35418313 -1.04675585 15.70839537 -1.0625 12.0625 C-1.07087891 11.02158203 -1.07925781 9.98066406 -1.08789062 8.90820312 C-1.09272461 7.42416992 -1.09272461 7.42416992 -1.09765625 5.91015625 C-1.10289307 4.99371338 -1.10812988 4.07727051 -1.11352539 3.13305664 C-1 1 -1 1 0 0 Z " fill="#8090C5" transform="translate(13,62)"/>
<path d="M0 0 C0.33 -0.33 0.66 -0.66 1 -1 C2.99958364 -1.04080783 5.00045254 -1.04254356 7 -1 C9.11441933 2.45160151 9.24118936 5.18032156 9.1875 9.1875 C9.18105469 10.25355469 9.17460938 11.31960937 9.16796875 12.41796875 C9 15 9 15 8 16 C5.3125 16.625 5.3125 16.625 2 16 C0.62109375 14.0625 0.62109375 14.0625 -0.75 11.625 C-2.87534625 8.06891489 -2.87534625 8.06891489 -6.3203125 5.95703125 C-8.89995522 5.43242501 -11.37330126 5.15475124 -14 5 C-14.71800781 4.90976562 -15.43601562 4.81953125 -16.17578125 4.7265625 C-21.22048191 4.31515002 -23.84950113 5.8042335 -27.5546875 8.90625 C-29 10 -29 10 -31 10 C-31 12.64 -31 15.28 -31 18 C-31.33 18 -31.66 18 -32 18 C-32 16.02 -32 14.04 -32 12 C-32.5775 12.37125 -33.155 12.7425 -33.75 13.125 C-36 14 -36 14 -38.25 13.125 C-38.8275 12.75375 -39.405 12.3825 -40 12 C-39.67 10.35 -39.34 8.7 -39 7 C-38.01 7 -37.02 7 -36 7 C-36 6.01 -36 5.02 -36 4 C-24.72977377 -2.29872923 -12.48424884 -2.58968763 0 0 Z " fill="#435595" transform="translate(68,14)"/>
<path d="M0 0 C2.05078125 0.03255208 4.1015625 0.06510417 6.15234375 0.09765625 C9.12104908 5.64784447 10.19389024 9.99072552 10.46484375 16.22265625 C10.50222656 17.07085938 10.53960937 17.9190625 10.578125 18.79296875 C10.15234375 21.09765625 10.15234375 21.09765625 8.34765625 22.8984375 C6.15234375 24.09765625 6.15234375 24.09765625 2.71484375 24.16015625 C-1.99538035 22.75535257 -3.13666089 21.12307361 -5.84765625 17.09765625 C-5.84765625 16.43765625 -5.84765625 15.77765625 -5.84765625 15.09765625 C-11.55123368 12.56273295 -17.71382172 12.329895 -23.84765625 13.09765625 C-26.0950637 14.26355747 -28.05322506 15.30322506 -29.84765625 17.09765625 C-30.26482904 19.51303463 -30.26482904 19.51303463 -29.84765625 22.09765625 C-26.30046634 26.01873915 -21.60634283 25.79103785 -16.66015625 26.16015625 C-13.69601601 26.39205258 -10.79794295 26.69816908 -7.84765625 27.09765625 C-7.51765625 27.75765625 -7.18765625 28.41765625 -6.84765625 29.09765625 C-15.09168809 29.61053381 -22.92291829 28.41968969 -30.84765625 26.09765625 C-33.15918322 23.78612928 -33.29225123 23.02161521 -33.53515625 19.84765625 C-33.43611971 16.93315231 -33.1416958 15.49552108 -31.3984375 13.13671875 C-26.50127651 9.1630224 -21.75171634 8.61931368 -15.59765625 8.91015625 C-14.56995117 8.95245361 -14.56995117 8.95245361 -13.52148438 8.99560547 C-9.73620589 9.34366644 -7.89903268 10.05508522 -4.953125 12.49609375 C-2.84765625 15.09765625 -2.84765625 15.09765625 -1.41015625 17.91015625 C-0.63671875 18.99296875 -0.63671875 18.99296875 0.15234375 20.09765625 C3.21758314 20.2800442 3.21758314 20.2800442 6.15234375 20.09765625 C6.17937756 18.16023284 6.198755 16.22270146 6.21484375 14.28515625 C6.22644531 13.20621094 6.23804688 12.12726562 6.25 11.015625 C6.28859141 8.03253456 6.28859141 8.03253456 5.15234375 5.09765625 C1.0688086 4.96603173 1.0688086 4.96603173 -2.91015625 5.72265625 C-5.65516465 6.2539482 -7.25563754 5.13446373 -9.84765625 4.09765625 C-12.83727779 3.63461722 -15.83333936 3.34720754 -18.84765625 3.09765625 C-16.84765625 1.09765625 -16.84765625 1.09765625 -13.625 0.9375 C-12.35785156 0.96972656 -11.09070313 1.00195312 -9.78515625 1.03515625 C-7.4731926 1.08914119 -5.16015954 1.11812088 -2.84765625 1.09765625 C-1.84765625 0.09765625 -1.84765625 0.09765625 0 0 Z " fill="#8291C6" transform="translate(69.84765625,8.90234375)"/>
<path d="M0 0 C0.68964844 0.0721875 1.37929688 0.144375 2.08984375 0.21875 C12.65120808 1.55376964 12.65120808 1.55376964 23 0 C29.10865625 1.59446282 34.07443006 4.0276114 38 9 C38 9.66 38 10.32 38 11 C38.66 11 39.32 11 40 11 C41.15769672 17.68116541 41.60427046 23.96252168 38 30 C35.9609375 31.12109375 35.9609375 31.12109375 34 32 C32.79117904 34.00016466 32.79117904 34.00016466 32 36 C31 37 31 37 28.4375 37.0625 C27.633125 37.041875 26.82875 37.02125 26 37 C26 37.66 26 38.32 26 39 C23.69 39 21.38 39 19 39 C19 38.67 19 38.34 19 38 C13.39 37.67 7.78 37.34 2 37 C2 36.67 2 36.34 2 36 C2.9446814 35.98598145 2.9446814 35.98598145 3.90844727 35.97167969 C6.79389218 35.91761238 9.67777864 35.83403875 12.5625 35.75 C13.55314453 35.73582031 14.54378906 35.72164062 15.56445312 35.70703125 C23.5770804 35.44083101 27.78229088 33.73847584 33.9375 28.5 C36.88083082 24.71433438 36.47186139 20.50801752 36.37109375 15.90234375 C35.99130814 12.93202047 35.35895683 10.66509202 34 8 C31.77747682 7.28639786 31.77747682 7.28639786 29 7 C27.865625 6.505 26.73125 6.01 25.5625 5.5 C20.59651811 3.54570675 15.58115947 3.52224292 10.30078125 3.25 C6.57308783 2.96766582 3.50328145 2.25117195 0 1 C0 0.67 0 0.34 0 0 Z " fill="#7380B1" transform="translate(42,36)"/>
<path d="M0 0 C0.33 0 0.66 0 1 0 C1.33 5.94 1.66 11.88 2 18 C25.43 18.33 48.86 18.66 73 19 C73 18.34 73 17.68 73 17 C70.69 17 68.38 17 66 17 C66 16.67 66 16.34 66 16 C70.29 16 74.58 16 79 16 C79 17.32 79 18.64 79 20 C74.83107445 21.01015491 70.81203657 21.13596231 66.54760742 21.11352539 C65.44923553 21.11374443 65.44923553 21.11374443 64.32867432 21.1139679 C61.92090845 21.11327413 59.51322102 21.10550692 57.10546875 21.09765625 C55.43109682 21.09579017 53.75672435 21.09436716 52.08235168 21.09336853 C47.68472779 21.08955835 43.28713716 21.0797409 38.88952637 21.06866455 C34.39836069 21.05841816 29.90718963 21.053864 25.41601562 21.04882812 C16.61066016 21.03811725 7.80533805 21.02053263 -1 21 C-0.67 14.07 -0.34 7.14 0 0 Z " fill="#8795C9" transform="translate(13,64)"/>
<path d="M0 0 C0.33 0 0.66 0 1 0 C1 5.28 1 10.56 1 16 C24.1 16.33 47.2 16.66 71 17 C71 17.66 71 18.32 71 19 C61.76002448 19.02312524 52.52005886 19.04091601 43.28006077 19.05181217 C38.99000085 19.05704061 34.69996067 19.06413753 30.40991211 19.07543945 C26.273206 19.08626975 22.13651892 19.09227714 17.99979973 19.09487724 C16.41807696 19.09673124 14.83635529 19.10035136 13.25464058 19.10573006 C11.04677162 19.1129424 8.83898227 19.11399086 6.63110352 19.11352539 C4.74247337 19.11685631 4.74247337 19.11685631 2.81568909 19.12025452 C0 19 0 19 -1 18 C-1.09986975 15.15664952 -1.13877881 12.34302837 -1.125 9.5 C-1.12886719 8.70207031 -1.13273438 7.90414062 -1.13671875 7.08203125 C-1.12660767 1.12660767 -1.12660767 1.12660767 0 0 Z " fill="#6F7BAA" transform="translate(15,64)"/>
<path d="M0 0 C-2.29283756 2.29283756 -3.08577376 2.32668746 -6.1875 2.8125 C-11.16572852 3.8001163 -14.02382054 5.91643225 -18 9 C-18.66 9 -19.32 9 -20 9 C-20 11.64 -20 14.28 -20 17 C-20.33 17 -20.66 17 -21 17 C-21 15.02 -21 13.04 -21 11 C-21.5775 11.37125 -22.155 11.7425 -22.75 12.125 C-25 13 -25 13 -27.25 12.125 C-27.8275 11.75375 -28.405 11.3825 -29 11 C-28.67 9.35 -28.34 7.7 -28 6 C-27.01 6 -26.02 6 -25 6 C-25 5.01 -25 4.02 -25 3 C-16.61570041 -0.99592151 -9.1228997 -2.43277325 0 0 Z " fill="#405295" transform="translate(57,15)"/>
<path d="M0 0 C14.5379494 -0.21171771 14.5379494 -0.21171771 18 1 C21.06270649 4.38509665 21.95469905 6.29783529 22.25 10.875 C22.1675 11.90625 22.085 12.9375 22 14 C21.01 14.33 20.02 14.66 19 15 C17.8499169 16.96672915 17.8499169 16.96672915 17 19 C16 20 16 20 12.40234375 20.09765625 C10.91403133 20.0909822 9.42573568 20.07902183 7.9375 20.0625 C7.17888672 20.05798828 6.42027344 20.05347656 5.63867188 20.04882812 C3.75908129 20.0370068 1.87953101 20.01907078 0 20 C0.33 19.34 0.66 18.68 1 18 C3.109375 17.69140625 3.109375 17.69140625 5.75 17.5625 C9.95288653 17.23827732 12.52123001 16.50036593 16 14 C16.66 14 17.32 14 18 14 C18.33 11.36 18.66 8.72 19 6 C17.824375 5.87625 16.64875 5.7525 15.4375 5.625 C11.45879574 5.13564065 7.82233441 4.1944795 4 3 C4 2.34 4 1.68 4 1 C2.68 0.67 1.36 0.34 0 0 Z " fill="#7F8EC3" transform="translate(48,46)"/>
<path d="M0 0 C4.97954559 3.65166676 5.19465333 5.68128667 7 12 C13.27 12.66 19.54 13.32 26 14 C26 14.33 26 14.66 26 15 C22.7 15.33 19.4 15.66 16 16 C19.63 16.33 23.26 16.66 27 17 C27 17.33 27 17.66 27 18 C12.13965524 18.75136575 12.13965524 18.75136575 6.66796875 15.5546875 C3.80845126 12.88937612 2.19175044 9.54287404 0.51953125 6.046875 C0.01808594 5.37140625 -0.48335937 4.6959375 -1 4 C-3.57705585 3.52036024 -3.57705585 3.52036024 -6 4 C-7.96822886 5.96822886 -7.66248381 9.34808709 -8 12 C-8.33 12 -8.66 12 -9 12 C-9 8.37 -9 4.74 -9 1 C-5.86128812 -0.56935594 -3.46144178 -0.35201103 0 0 Z " fill="#7B8AC0" transform="translate(33,49)"/>
<path d="M0 0 C0.68964844 0.0721875 1.37929688 0.144375 2.08984375 0.21875 C12.65120808 1.55376964 12.65120808 1.55376964 23 0 C25.33984375 0.671875 25.33984375 0.671875 27.9375 1.75 C28.79214844 2.09546875 29.64679688 2.4409375 30.52734375 2.796875 C32.94677695 3.97410316 34.91152417 5.31371325 37 7 C36.67 7.66 36.34 8.32 36 9 C32.30477385 7.99920958 28.95524276 6.98036963 25.4375 5.4375 C20.52787111 3.51967622 15.51525723 3.51884516 10.30078125 3.25 C6.57308783 2.96766582 3.50328145 2.25117195 0 1 C0 0.67 0 0.34 0 0 Z " fill="#6D7AAB" transform="translate(42,36)"/>
<path d="M0 0 C0.75216797 0.29003906 0.75216797 0.29003906 1.51953125 0.5859375 C8.45411664 2.97228545 15.30496519 3.69281222 22.57348633 4.26513672 C23.37423584 4.33361816 24.17498535 4.40209961 25 4.47265625 C26.0828125 4.55398804 26.0828125 4.55398804 27.1875 4.63696289 C29 5 29 5 31 7 C27.37 7 23.74 7 20 7 C20 7.33 20 7.66 20 8 C12.00088158 7.75612444 5.89999866 7.19411683 -1 3 C-0.67 2.01 -0.34 1.02 0 0 Z " fill="#6B77A6" transform="translate(32,40)"/>
<path d="M0 0 C1.32 0.33 2.64 0.66 4 1 C4 1.66 4 2.32 4 3 C4.66 3 5.32 3 6 3 C6.90214354 9.05899106 7.58613639 14.23996895 5 20 C2.375 21.9375 2.375 21.9375 0 23 C0.33 22.2575 0.66 21.515 1 20.75 C2.85600365 13.78998632 3.05598626 6.60917663 0 0 Z " fill="#6B7BB2" transform="translate(76,44)"/>
<path d="M0 0 C1.8253125 0.4640625 1.8253125 0.4640625 3.6875 0.9375 C9.73076221 2.29868206 15.82945928 2.63758803 22 3 C22 3.33 22 3.66 22 4 C18.7 4.33 15.4 4.66 12 5 C15.63 5.33 19.26 5.66 23 6 C23 6.33 23 6.66 23 7 C7.93825684 7.76154881 7.93825684 7.76154881 1 3 C0.67 2.01 0.34 1.02 0 0 Z " fill="#6F7CAE" transform="translate(37,60)"/>
<path d="M0 0 C3.10408807 -0.05807043 6.2080364 -0.09361914 9.3125 -0.125 C10.19357422 -0.14175781 11.07464844 -0.15851562 11.98242188 -0.17578125 C12.82998047 -0.18222656 13.67753906 -0.18867188 14.55078125 -0.1953125 C15.72120972 -0.21102295 15.72120972 -0.21102295 16.9152832 -0.22705078 C19 0 19 0 22 2 C22 2.66 22 3.32 22 4 C21.34 4 20.68 4 20 4 C20 3.34 20 2.68 20 2 C18.02463255 2.34786708 18.02463255 2.34786708 16 3 C15.67 3.66 15.34 4.32 15 5 C15.66 5.33 16.32 5.66 17 6 C12.71 5.67 8.42 5.34 4 5 C4 4.67 4 4.34 4 4 C7.465 3.505 7.465 3.505 11 3 C7.37 2.34 3.74 1.68 0 1 C0 0.67 0 0.34 0 0 Z " fill="#54659F" transform="translate(44,13)"/>
<path d="M0 0 C6.93 0 13.86 0 21 0 C20.67 0.99 20.34 1.98 20 3 C13.4 3 6.8 3 0 3 C0 2.01 0 1.02 0 0 Z " fill="#5A70B6" transform="translate(42,75)"/>
<path d="M0 0 C1.08727974 3.26183922 0.97132603 5.39988675 0.8125 8.8125 C0.73945525 14.29085639 1.38022139 16.92774907 5 21 C2.23060425 20.70327903 0.9379874 19.9500454 -1.25 18.1875 C-3.88448217 13.38897891 -3.84871567 8.36755315 -3 3 C-1.47265625 1.1328125 -1.47265625 1.1328125 0 0 Z " fill="#7B89BC" transform="translate(28,21)"/>
<path d="M0 0 C12.87 0.495 12.87 0.495 26 1 C22.89126369 3.07249087 22.21440452 3.24964613 18.69140625 3.23046875 C17.86189453 3.22853516 17.03238281 3.22660156 16.17773438 3.22460938 C14.88319336 3.20624023 14.88319336 3.20624023 13.5625 3.1875 C12.70333984 3.18685547 11.84417969 3.18621094 10.95898438 3.18554688 C7.12035953 3.15874499 3.71189752 3.05490496 0 2 C0 1.34 0 0.68 0 0 Z " fill="#8795C8" transform="translate(38,72)"/>
<path d="M0 0 C0.94875 0.04125 1.8975 0.0825 2.875 0.125 C3.535 2.105 4.195 4.085 4.875 6.125 C1.905 6.125 -1.065 6.125 -4.125 6.125 C-4.455 4.805 -4.785 3.485 -5.125 2.125 C-3.125 0.125 -3.125 0.125 0 0 Z " fill="#526092" transform="translate(72.125,12.875)"/>
<path d="M0 0 C3 3 3 3 3.29296875 6.13671875 C3.25816406 7.30847656 3.22335938 8.48023438 3.1875 9.6875 C3.16042969 10.86699219 3.13335938 12.04648437 3.10546875 13.26171875 C3.07066406 14.16535156 3.03585938 15.06898437 3 16 C2.34 16 1.68 16 1 16 C0.67 17.32 0.34 18.64 0 20 C0 13.4 0 6.8 0 0 Z " fill="#6D7CAF" transform="translate(23,51)"/>
<path d="M0 0 C0.99 0.33 1.98 0.66 3 1 C1 4 1 4 -2 5 C-4.06145107 5.068991 -6.12501401 5.08467727 -8.1875 5.0625 C-9.81751953 5.04896484 -9.81751953 5.04896484 -11.48046875 5.03515625 C-12.31191406 5.02355469 -13.14335938 5.01195313 -14 5 C-13.67 4.34 -13.34 3.68 -13 3 C-10.8203125 2.65625 -10.8203125 2.65625 -8.125 2.5 C-4.41961747 2.28394271 -3.19107794 2.12738529 0 0 Z " fill="#8594C8" transform="translate(62,61)"/>
<path d="M0 0 C0.6290625 0.20496094 1.258125 0.40992188 1.90625 0.62109375 C7.30281819 2.31971235 12.36659614 3.47838853 18 4 C18 4.33 18 4.66 18 5 C16.73542969 4.98259766 16.73542969 4.98259766 15.4453125 4.96484375 C14.34960938 4.95582031 13.25390625 4.94679688 12.125 4.9375 C11.03445312 4.92589844 9.94390625 4.91429687 8.8203125 4.90234375 C6.04822454 4.80255697 6.04822454 4.80255697 4 6 C1.375 4.5625 1.375 4.5625 -1 3 C-0.67 2.01 -0.34 1.02 0 0 Z " fill="#6874A3" transform="translate(32,40)"/>
<path d="M0 0 C1.23922223 3.71766668 0.57018942 5.43889537 -0.4375 9.1875 C-0.72496094 10.27417969 -1.01242188 11.36085938 -1.30859375 12.48046875 C-1.65083984 13.72763672 -1.65083984 13.72763672 -2 15 C-2.33 15 -2.66 15 -3 15 C-3.08107583 13.06318839 -3.13922475 11.1254066 -3.1875 9.1875 C-3.22230469 8.10855469 -3.25710937 7.02960937 -3.29296875 5.91796875 C-3 3 -3 3 -1.48828125 1.11328125 C-0.99714844 0.74589844 -0.50601562 0.37851562 0 0 Z " fill="#8695C9" transform="translate(28,21)"/>
<path d="M0 0 C0.886875 -0.01675781 1.77375 -0.03351562 2.6875 -0.05078125 C3.8321875 0.12904297 3.8321875 0.12904297 5 0.3125 C5.66 1.3025 6.32 2.2925 7 3.3125 C0.07 2.8175 0.07 2.8175 -7 2.3125 C-4.47982574 -0.20767426 -3.48500151 0.01519623 0 0 Z " fill="#8594C8" transform="translate(58,9.6875)"/>
<path d="M0 0 C1.32 0.33 2.64 0.66 4 1 C6.27678571 7.96428571 6.27678571 7.96428571 5 12 C4.16180842 10.37750059 3.3295884 8.75191503 2.5 7.125 C2.0359375 6.22007813 1.571875 5.31515625 1.09375 4.3828125 C0 2 0 2 0 0 Z " fill="#8492C5" transform="translate(76,44)"/>
<path d="M0 0 C0.66 0.33 1.32 0.66 2 1 C2.99 1.33 3.98 1.66 5 2 C4.38125 2.2475 3.7625 2.495 3.125 2.75 C0.61289704 4.22770762 0.23892656 5.43955177 -1 8 C-1.99 8.33 -2.98 8.66 -4 9 C-4 8.34 -4 7.68 -4 7 C-3.01 6.34 -2.02 5.68 -1 5 C-1.33 4.34 -1.66 3.68 -2 3 C-1.34 2.01 -0.68 1.02 0 0 Z " fill="#6778B1" transform="translate(75,64)"/>
<path d="M0 0 C0.66 0 1.32 0 2 0 C2.2475 0.94875 2.495 1.8975 2.75 2.875 C3.6857077 6.08693191 3.6857077 6.08693191 6.125 7.375 C6.74375 7.58125 7.3625 7.7875 8 8 C5.125 8.125 5.125 8.125 2 8 C0 6 0 6 -0.125 2.875 C-0.08375 1.92625 -0.0425 0.9775 0 0 Z " fill="#8594C5" transform="translate(24,67)"/>
<path d="M0 0 C0.33 0 0.66 0 1 0 C1.3125 3.3125 1.3125 3.3125 1 7 C-1.5 8.9375 -1.5 8.9375 -4 10 C-3.52449439 8.51965236 -3.04448784 7.04074979 -2.5625 5.5625 C-2.29566406 4.73878906 -2.02882813 3.91507813 -1.75390625 3.06640625 C-1 1 -1 1 0 0 Z " fill="#8391C4" transform="translate(80,57)"/>
<path d="M0 0 C0.66 0.33 1.32 0.66 2 1 C-0.31 3.31 -2.62 5.62 -5 8 C-5.66 7.67 -6.32 7.34 -7 7 C-6.67 6.01 -6.34 5.02 -6 4 C-5.01 4 -4.02 4 -3 4 C-3 3.01 -3 2.02 -3 1 C-2.01 0.67 -1.02 0.34 0 0 Z " fill="#4E5F9C" transform="translate(35,17)"/>
<path d="M0 0 C1.4540625 0.0309375 1.4540625 0.0309375 2.9375 0.0625 C3.2675 0.7225 3.5975 1.3825 3.9375 2.0625 C2.2875 2.0625 0.6375 2.0625 -1.0625 2.0625 C-1.3925 3.3825 -1.7225 4.7025 -2.0625 6.0625 C-3.0525 5.7325 -4.0425 5.4025 -5.0625 5.0625 C-3.9375 0.08035714 -3.9375 0.08035714 0 0 Z " fill="#5465A0" transform="translate(72.0625,12.9375)"/>
<path d="M0 0 C0.33 0 0.66 0 1 0 C1 3.3 1 6.6 1 10 C0.01 10 -0.98 10 -2 10 C-2.25 3.375 -2.25 3.375 0 0 Z " fill="#7B8BC3" transform="translate(79,20)"/>
<path d="M0 0 C0.33 0.66 0.66 1.32 1 2 C1.66 2.33 2.32 2.66 3 3 C2.34 3 1.68 3 1 3 C0.773125 3.639375 0.54625 4.27875 0.3125 4.9375 C-1 7 -1 7 -3.625 7.75 C-4.800625 7.87375 -4.800625 7.87375 -6 8 C-5.01 7.67 -4.02 7.34 -3 7 C-2.67 5.35 -2.34 3.7 -2 2 C-1.34 2 -0.68 2 0 2 C0 1.34 0 0.68 0 0 Z " fill="#7683B3" transform="translate(66,58)"/>
<path d="M0 0 C0.99 0 1.98 0 3 0 C2.34 3.63 1.68 7.26 1 11 C0.67 11 0.34 11 0 11 C0 7.37 0 3.74 0 0 Z " fill="#8795C7" transform="translate(24,50)"/>
<path d="M0 0 C2.31 0 4.62 0 7 0 C6.67 0.99 6.34 1.98 6 3 C3.69 3 1.38 3 -1 3 C-0.67 2.01 -0.34 1.02 0 0 Z " fill="#7D8ABD" transform="translate(28,73)"/>
<path d="M0 0 C3.3 0.33 6.6 0.66 10 1 C5.88348273 3.05825864 5.13191749 3.34008135 1 2 C0.67 1.34 0.34 0.68 0 0 Z " fill="#8594C8" transform="translate(37,44)"/>
</svg>
